<svg width="74" height="67" viewBox="0 0 74 67" fill="none" xmlns="http://www.w3.org/2000/svg">
<path opacity="0.4" d="M48.6738 67C62.4809 67 73.6738 55.8071 73.6738 42C73.6738 28.1929 62.4809 17 48.6738 17C34.8667 17 23.6738 28.1929 23.6738 42C23.6738 55.8071 34.8667 67 48.6738 67Z" fill="#4CCC7D"/>
<path fill-rule="evenodd" clip-rule="evenodd" d="M30.2916 27.2386C37.7146 27.2386 43.7531 21.2001 43.7531 13.7771C43.7531 6.35404 37.7146 0.315613 30.2916 0.315613C22.8686 0.315613 16.8301 6.35404 16.8301 13.7771C16.8301 21.2001 22.8686 27.2386 30.2916 27.2386ZM30.2916 2.23868C36.6541 2.23868 41.83 7.41462 41.83 13.7771C41.83 20.1396 36.6541 25.3155 30.2916 25.3155C23.9291 25.3155 18.7532 20.1396 18.7532 13.7771C18.7532 7.41462 23.9291 2.23868 30.2916 2.23868Z" fill="#232333"/>
<path fill-rule="evenodd" clip-rule="evenodd" d="M53.0867 28.4817L52.1251 27.5202C50.6617 26.0587 48.3204 25.875 46.6377 26.9702C45.1955 26.0327 43.2704 26.0327 41.83 26.9702C40.1454 25.875 37.8041 26.0587 36.3425 27.5202L34.7012 29.1615H23.5609C21.4733 29.1615 19.4311 30.0087 17.9599 31.4836L15.8676 33.5722C15.6157 33.825 15.2658 33.9692 14.9071 33.9692V32.0461C14.9071 31.5144 14.4772 31.0846 13.9455 31.0846H4.33019C3.79848 31.0846 3.36865 31.5144 3.36865 32.0461C3.36865 32.5779 3.79848 33.0077 4.33019 33.0077H12.984V46.4692H4.33019C3.79848 46.4692 3.36865 46.899 3.36865 47.4307C3.36865 47.9625 3.79848 48.3922 4.33019 48.3922H13.9455C14.4772 48.3922 14.9071 47.9625 14.9071 47.4307V46.4692H26.4455C26.5349 46.4692 26.6244 46.4568 26.7089 46.4327L40.1704 42.5866C40.3281 42.5414 40.4714 42.4567 40.5867 42.3414L53.0867 29.8414C53.4626 29.4654 53.4626 28.8577 53.0867 28.4817ZM45.1185 28.3596L38.5474 34.9307H36.4589L42.5098 28.8799C43.1733 28.2155 44.2406 28.0442 45.1185 28.3596ZM40.3108 28.3596L37.0166 31.6538C37.0387 31.4673 37.0502 31.277 37.0502 31.0846V30.1231C37.0502 29.9539 36.9945 29.8019 36.9176 29.6645L37.7021 28.8799C38.3666 28.2155 39.4339 28.0442 40.3108 28.3596ZM39.404 40.8048L26.3108 44.5461H14.9071V35.8923C15.7724 35.8923 16.6185 35.5423 17.2273 34.9318L19.3195 32.8433C20.4349 31.726 21.9801 31.0846 23.5609 31.0846H35.1271C35.1271 32.675 33.8339 33.9692 32.2425 33.9692H26.9263C26.131 33.9692 25.4839 34.6164 25.4839 35.4116C25.4839 36.2067 26.131 36.8538 26.9263 36.8538H38.9454C39.2012 36.8538 39.4454 36.7529 39.6252 36.5722L47.3175 28.8799C48.2184 27.9789 49.8617 27.9789 50.7655 28.8799L51.0473 29.1615L39.404 40.8048Z" fill="#232333"/>
<path fill-rule="evenodd" clip-rule="evenodd" d="M31.2532 16.6617H27.407C26.8753 16.6617 26.4455 17.0915 26.4455 17.6233C26.4455 18.1549 26.8753 18.5848 27.407 18.5848H29.3301V20.5079C29.3301 21.0395 29.7599 21.4694 30.2916 21.4694C30.8233 21.4694 31.2532 21.0395 31.2532 20.5079V18.5848C32.1012 18.5848 32.9021 18.2136 33.4512 17.5674C34.0003 16.9222 34.2368 16.0674 34.0993 15.2223C33.8762 13.8502 32.607 12.8156 31.1503 12.8156H29.3301C29.0475 12.8156 28.7802 12.6915 28.5964 12.4762C28.4108 12.2579 28.3349 11.9771 28.383 11.6857C28.455 11.2406 28.9157 10.8925 29.4329 10.8925H33.1762C33.7079 10.8925 34.1378 10.4627 34.1378 9.93098C34.1378 9.39927 33.7079 8.96944 33.1762 8.96944H31.2532V7.04637C31.2532 6.51467 30.8233 6.08484 30.2916 6.08484C29.7599 6.08484 29.3301 6.51467 29.3301 7.04637V8.97811C27.9176 9.02707 26.7022 10.0377 26.4839 11.3762C26.3464 12.2213 26.583 13.0761 27.1321 13.7213C27.6811 14.3674 28.482 14.7386 29.3301 14.7386H31.1503C31.6676 14.7386 32.1282 15.0867 32.2002 15.5319C32.2483 15.8232 32.1724 16.1041 31.9868 16.3223C31.8031 16.5377 31.5358 16.6617 31.2532 16.6617Z" fill="#232333"/>
</svg>
