<svg width="75" height="66" viewBox="0 0 75 66" fill="none" xmlns="http://www.w3.org/2000/svg">
<path opacity="0.4" d="M49.8369 66C63.644 66 74.8369 54.8071 74.8369 41C74.8369 27.1929 63.644 16 49.8369 16C36.0298 16 24.8369 27.1929 24.8369 41C24.8369 54.8071 36.0298 66 49.8369 66Z" fill="#549DF5"/>
<path d="M33.2631 38H56.1631C56.2631 39.6 56.0631 40.4 55.4631 42H33.7631" stroke="#37464F" stroke-width="2" stroke-miterlimit="10" stroke-linecap="round" stroke-linejoin="round"/>
<path d="M53.5631 38V17.2C53.5631 16.8 53.2631 16.5 52.8631 16.5H33.3631" stroke="#37464F" stroke-width="2" stroke-miterlimit="10" stroke-linecap="round" stroke-linejoin="round"/>
<path d="M1.16309 44.8V41.4C1.16309 33.2 8.46309 28.5 17.4631 28.5C26.4631 28.5 33.7631 33.2 33.7631 41.4V44.8" stroke="#37464F" stroke-width="2" stroke-miterlimit="10" stroke-linecap="round" stroke-linejoin="round"/>
<path d="M26.7631 14.9C26.7631 20.4 22.5631 24.9 17.4631 24.9C12.3631 24.9 8.16309 20.4 8.16309 14.9C8.16309 9.40001 12.3631 4.90001 17.4631 4.90001C22.5631 4.80001 26.7631 9.30001 26.7631 14.9Z" stroke="#37464F" stroke-width="2" stroke-miterlimit="10" stroke-linecap="round" stroke-linejoin="round"/>
<path d="M5.66309 19.9C6.76309 19.9 7.66309 18.9 7.66309 17.8V12.6C7.66309 11.4 6.76309 10.5 5.66309 10.5C4.56309 10.5 3.66309 11.5 3.66309 12.6V17.8C3.76309 19 4.66309 19.9 5.66309 19.9Z" stroke="#37464F" stroke-width="2" stroke-miterlimit="10" stroke-linecap="round" stroke-linejoin="round"/>
<path d="M29.1631 19.9C30.2631 19.9 31.1631 18.9 31.1631 17.8V12.6C31.1631 11.4 30.2631 10.5 29.1631 10.5C28.0631 10.5 27.1631 11.5 27.1631 12.6V17.8C27.1631 19 28.0631 19.9 29.1631 19.9Z" stroke="#37464F" stroke-width="2" stroke-miterlimit="10" stroke-linecap="round" stroke-linejoin="round"/>
<path d="M5.26308 10.5C6.96308 4.9 11.6631 1 17.4631 1C23.2631 1 27.8631 5 29.5631 10.5" stroke="#37464F" stroke-width="2" stroke-miterlimit="10" stroke-linecap="round" stroke-linejoin="round"/>
<path d="M38.1631 23.7C38.1631 26.3 40.0631 28.3 42.4631 28.3C44.8631 28.3 46.7631 26.2 46.7631 23.7C46.7631 21.1 44.8631 19.1 42.4631 19.1C40.0631 19 38.1631 21.1 38.1631 23.7Z" stroke="#37464F" stroke-width="2" stroke-miterlimit="10" stroke-linecap="round" stroke-linejoin="round"/>
<path d="M35.2631 35.8C35.2631 33 37.1631 31.2 39.7631 30.4L42.4631 32.9L45.1631 30.4C47.8631 31.1 49.6631 33 49.6631 35.8" stroke="#37464F" stroke-width="2" stroke-miterlimit="10" stroke-linecap="round" stroke-linejoin="round"/>
</svg>
