<svg width="75" height="68" viewBox="0 0 75 68" fill="none" xmlns="http://www.w3.org/2000/svg">
<path opacity="0.4" d="M49.6738 68C63.4809 68 74.6738 56.8071 74.6738 43C74.6738 29.1929 63.4809 18 49.6738 18C35.8667 18 24.6738 29.1929 24.6738 43C24.6738 56.8071 35.8667 68 49.6738 68Z" fill="#FF5F0F"/>
<path fill-rule="evenodd" clip-rule="evenodd" d="M30.1335 35.4822H25.9668C25.3918 35.4822 24.9251 35.9489 24.9251 36.5239C24.9251 37.0989 25.3918 37.5656 25.9668 37.5656H30.1335C30.7085 37.5656 31.1751 37.0989 31.1751 36.5239C31.1751 35.9489 30.7085 35.4822 30.1335 35.4822Z" fill="#232333"/>
<path fill-rule="evenodd" clip-rule="evenodd" d="M55.1335 0.0655518H30.1335C28.598 0.0655518 27.2689 0.909278 26.546 2.14889H5.13346C2.83556 2.14889 0.966797 4.01766 0.966797 6.31555V37.5656C0.966797 39.8634 2.83556 41.7322 5.13346 41.7322H21.8001V44.2999L16.0137 48.1572C15.6325 48.4124 15.4615 48.8864 15.595 49.326C15.7272 49.7645 16.1335 50.0656 16.5918 50.0656H39.5085C39.9668 50.0656 40.372 49.7645 40.5053 49.326C40.6387 48.8864 40.4678 48.4124 40.0865 48.1572L34.3001 44.2999V41.7322H50.9668C53.2647 41.7322 55.1335 39.8634 55.1335 37.5656V18.8156C57.4314 18.8156 59.3001 16.9468 59.3001 14.6489V4.23222C59.3001 1.93433 57.4314 0.0655518 55.1335 0.0655518ZM32.6804 45.7239L36.0678 47.9822H20.0324L23.4199 45.7239C23.7095 45.5301 23.8835 45.2051 23.8835 44.8572V41.7322H32.2168V44.8572C32.2168 45.2051 32.3908 45.5301 32.6804 45.7239ZM50.9668 39.6489H5.13346C3.98452 39.6489 3.05013 38.7145 3.05013 37.5656V33.3989H53.0501V37.5656C53.0501 38.7145 52.1157 39.6489 50.9668 39.6489ZM25.9668 31.3155H9.30013V26.1072C9.30013 24.9728 10.0209 23.9728 11.0241 23.6385L13.1491 23.0968L16.897 26.8437C17.3043 27.251 17.9627 27.251 18.3699 26.8437L22.1178 23.0957L24.1731 23.6176C25.246 23.9728 25.9668 24.9728 25.9668 26.1072V31.3155ZM53.0501 31.3155H28.0501V26.1072C28.0501 24.0729 26.7543 22.278 24.7574 21.6197L22.0575 20.9312C21.7032 20.8395 21.323 20.9437 21.0637 21.2041L17.6335 24.6343L14.2032 21.2041C13.944 20.9437 13.5637 20.8395 13.2095 20.9312L10.4397 21.6406C8.51263 22.278 7.2168 24.0729 7.2168 26.1072V31.3155H3.05013V6.31555C3.05013 5.16661 3.98452 4.23222 5.13346 4.23222H25.9668V14.6489C25.9668 16.9468 27.8356 18.8156 30.1335 18.8156H31.1751V24.0239C31.1751 24.4447 31.4283 24.825 31.8178 24.9864C31.947 25.0395 32.0824 25.0656 32.2168 25.0656C32.4877 25.0656 32.7543 24.9592 32.9532 24.7603L38.898 18.8156H53.0501V31.3155ZM57.2168 14.6489C57.2168 15.7978 56.2824 16.7322 55.1335 16.7322H38.4668C38.1897 16.7322 37.9251 16.8416 37.7304 17.0375L33.2585 21.5093V17.7739C33.2585 17.1989 32.7928 16.7322 32.2168 16.7322H30.1335C28.9845 16.7322 28.0501 15.7978 28.0501 14.6489V4.23222C28.0501 3.08327 28.9845 2.14889 30.1335 2.14889H55.1335C56.2824 2.14889 57.2168 3.08327 57.2168 4.23222V14.6489Z" fill="#232333"/>
<path fill-rule="evenodd" clip-rule="evenodd" d="M52.0085 6.31555H33.2585C32.6825 6.31555 32.2168 6.7822 32.2168 7.35722C32.2168 7.93224 32.6825 8.39889 33.2585 8.39889H52.0085C52.5845 8.39889 53.0501 7.93224 53.0501 7.35722C53.0501 6.7822 52.5845 6.31555 52.0085 6.31555Z" fill="#232333"/>
<path fill-rule="evenodd" clip-rule="evenodd" d="M47.8418 10.4822H33.2585C32.6825 10.4822 32.2168 10.9489 32.2168 11.5239C32.2168 12.0989 32.6825 12.5656 33.2585 12.5656H47.8418C48.4178 12.5656 48.8835 12.0989 48.8835 11.5239C48.8835 10.9489 48.4178 10.4822 47.8418 10.4822Z" fill="#232333"/>
<path fill-rule="evenodd" clip-rule="evenodd" d="M17.6335 8.39886C14.1866 8.39886 11.3835 11.202 11.3835 14.6489C11.3835 18.0957 14.1866 20.8989 17.6335 20.8989C21.0803 20.8989 23.8835 18.0957 23.8835 14.6489C23.8835 11.202 21.0803 8.39886 17.6335 8.39886ZM17.6335 18.8155C15.3356 18.8155 13.4668 16.9468 13.4668 14.6489C13.4668 12.351 15.3356 10.4822 17.6335 10.4822C19.9314 10.4822 21.8001 12.351 21.8001 14.6489C21.8001 16.9468 19.9314 18.8155 17.6335 18.8155Z" fill="#232333"/>
</svg>
