<svg width="74" height="66" viewBox="0 0 74 66" fill="none" xmlns="http://www.w3.org/2000/svg">
<path opacity="0.4" d="M48.8369 65.3253C62.644 65.3253 73.8369 54.1324 73.8369 40.3253C73.8369 26.5181 62.644 15.3253 48.8369 15.3253C35.0298 15.3253 23.8369 26.5181 23.8369 40.3253C23.8369 54.1324 35.0298 65.3253 48.8369 65.3253Z" fill="#FF716B"/>
<path fill-rule="evenodd" clip-rule="evenodd" d="M59.0108 37.6183C57.6353 36.0284 55.2145 35.6026 53.2391 36.6123L45.6733 40.6449C45.4969 40.3473 45.2949 40.0634 45.0491 39.8049C44.1814 38.8911 42.9617 38.3672 41.7018 38.3672H29.9508C29.0498 38.3672 28.2156 38.0384 27.6041 37.4418C25.2005 35.0972 21.507 33.7518 17.4709 33.7518C14.6693 33.7518 12.0143 34.4095 9.79092 35.6569C9.32235 35.9199 8.76618 36.0595 8.1824 36.0595H1.31694C0.678883 36.0595 0.163086 36.5753 0.163086 37.2134C0.163086 37.8514 0.678883 38.3672 1.31694 38.3672H8.1824C9.16207 38.3672 10.1092 38.125 10.9205 37.6691C12.7978 36.6157 15.0639 36.0595 17.4709 36.0595C20.8598 36.0595 24.0454 37.1938 25.9933 39.0942C27.0386 40.1142 28.4452 40.6749 29.9508 40.6749H41.7018C42.3411 40.6749 42.9341 40.931 43.3748 41.3938C43.8157 41.8576 44.0395 42.4669 44.0061 43.1073C43.9425 44.3107 42.8222 45.2904 41.5056 45.2904H24.394C23.7559 45.2904 23.2401 45.8062 23.2401 46.4442C23.2401 47.0823 23.7559 47.5981 24.394 47.5981H41.5056C44.0717 47.5981 46.1833 45.6792 46.3114 43.2284C46.3172 43.1269 46.2988 43.0299 46.2976 42.9296L54.3087 38.658C55.331 38.1365 56.5761 38.3315 57.2649 39.1264C57.7346 39.67 57.9342 40.3496 57.8291 41.0406C57.7254 41.7227 57.3307 42.3238 56.7123 42.708L36.9491 55.9588C35.5725 56.8151 33.8913 57.0527 32.3567 56.6177L12.56 50.4757C11.3416 50.0973 10.077 49.9058 8.79848 49.9058H3.62464C2.98659 49.9058 2.47079 50.4216 2.47079 51.0596C2.47079 51.6977 2.98659 52.2135 3.62464 52.2135H8.79848C9.84397 52.2135 10.8789 52.3703 11.8758 52.6796L31.7013 58.8296C32.419 59.0339 33.1563 59.1343 33.8913 59.1343C35.3914 59.1343 36.8856 58.7166 38.201 57.8986L57.9642 44.6465C59.1226 43.9254 59.9049 42.7381 60.1104 41.3881C60.3157 40.038 59.9153 38.6649 59.0108 37.6183Z" fill="#232333"/>
<path d="M30.1638 9.94404C26.7905 9.94404 24.0464 12.6881 24.0464 16.0615C24.0464 19.4348 26.7905 22.1789 30.1638 22.1789C33.5371 22.1789 36.2812 19.4348 36.2812 16.0615C36.2812 12.6881 33.5371 9.94404 30.1638 9.94404ZM30.1638 20.5954C27.664 20.5954 25.6298 18.5612 25.6298 16.0615C25.6298 13.5617 27.664 11.5275 30.1638 11.5275C32.6635 11.5275 34.6977 13.5617 34.6977 16.0615C34.6977 18.5612 32.6635 20.5954 30.1638 20.5954Z" fill="#232333" stroke="#232333" stroke-width="0.4"/>
<mask id="path-4-outside-1" maskUnits="userSpaceOnUse" x="13.7785" y="-0.325256" width="33" height="33" fill="black">
<rect fill="white" x="13.7785" y="-0.325256" width="33" height="33"/>
<path fill-rule="evenodd" clip-rule="evenodd" d="M45.4332 14.1992C45.4006 13.9329 45.1935 13.7222 44.929 13.6838L41.3165 13.1678C41.0484 12.1346 40.6383 11.1481 40.0933 10.225L42.2846 7.30002C42.4455 7.0858 42.4425 6.79053 42.2774 6.58047C41.5117 5.60468 40.6259 4.71883 39.6436 3.94842C39.433 3.7833 39.1377 3.77913 38.9228 3.94072L36.0014 6.1325C35.0813 5.58872 34.0942 5.17807 33.0575 4.90765L32.5415 1.29562C32.503 1.0299 32.2906 0.822222 32.0237 0.791474C30.684 0.635833 29.6437 0.635833 28.304 0.791474C28.0371 0.822222 27.8247 1.0299 27.7863 1.29562L27.2703 4.90765C26.2341 5.17807 25.2464 5.58872 24.3263 6.1325L21.4049 3.94072C21.1901 3.77913 20.8948 3.78274 20.6842 3.94842C19.7018 4.71883 18.816 5.60468 18.0503 6.58047C17.8852 6.79053 17.8823 7.0858 18.0432 7.30002L20.2345 10.225C19.6894 11.1481 19.2793 12.1346 19.0113 13.1678L15.3987 13.6838C15.1342 13.7222 14.9271 13.9329 14.8946 14.1992C14.8164 14.8436 14.7785 15.4531 14.7785 16.0614C14.7785 16.6697 14.8164 17.2792 14.8946 17.9236C14.9271 18.1899 15.1342 18.4005 15.3987 18.439L19.0113 18.955C19.2793 19.9882 19.6894 20.9747 20.2345 21.8971L18.0432 24.8228C17.8823 25.037 17.8852 25.3322 18.0503 25.5423C18.8172 26.5193 19.703 27.4051 20.6842 28.175C20.8948 28.3395 21.1901 28.343 21.4049 28.1821L24.3263 25.9902C25.2464 26.5341 26.2341 26.9447 27.2703 27.2151L27.7863 30.8272C27.8247 31.0929 28.0371 31.3006 28.304 31.3313C28.9739 31.4094 29.5822 31.4467 30.1639 31.4467C30.7455 31.4467 31.3539 31.4094 32.0237 31.3313C32.2906 31.3006 32.503 31.0929 32.5415 30.8272L33.0575 27.2151C34.0942 26.9447 35.0813 26.5341 36.0014 25.9902L38.9228 28.1821C39.1377 28.343 39.4323 28.34 39.6436 28.1744C40.6259 27.4039 41.5117 26.5181 42.2774 25.5423C42.4425 25.3322 42.4455 25.037 42.2846 24.8228L40.0933 21.8978C40.6383 20.9747 41.0484 19.9882 41.3165 18.955L44.929 18.439C45.1935 18.4005 45.4006 18.1899 45.4332 17.9236C45.5113 17.2792 45.5492 16.6697 45.5492 16.0614C45.5492 15.4531 45.5113 14.8436 45.4332 14.1992ZM44.3059 17.3319L40.7513 17.8402C40.507 17.8751 40.3099 18.0573 40.2573 18.2982C39.9963 19.4751 39.5335 20.59 38.8797 21.6119C38.7471 21.8196 38.7571 22.0889 38.9051 22.2859L41.0614 25.163C40.5182 25.8115 39.9158 26.4127 39.2643 26.9589L36.3896 24.802C36.1926 24.6541 35.9239 24.6452 35.7156 24.7771C34.6978 25.4287 33.5818 25.8926 32.3995 26.1571C32.1592 26.2098 31.9776 26.4068 31.9427 26.6506L31.4343 30.2023C30.5378 30.2833 29.7899 30.2833 28.8934 30.2023L28.3857 26.6506C28.3507 26.4068 28.1691 26.2098 27.9288 26.1571C26.746 25.8926 25.63 25.4287 24.6122 24.7771C24.4032 24.6452 24.1351 24.6541 23.9382 24.802L21.0635 26.9589C20.4125 26.4139 19.8096 25.8121 19.2664 25.163L21.4227 22.2853C21.5706 22.0877 21.5807 21.8191 21.4481 21.6113C20.7942 20.59 20.3315 19.4758 20.0705 18.2982C20.0178 18.0573 19.8207 17.8751 19.5764 17.8402L16.0218 17.3319C15.9815 16.8981 15.962 16.4791 15.962 16.0614C15.962 15.6436 15.9815 15.2246 16.0218 14.7909L19.5764 14.2826C19.8207 14.2477 20.0178 14.0655 20.0705 13.8246C20.3315 12.6476 20.7942 11.5327 21.4481 10.5108C21.5807 10.3032 21.5706 10.0339 21.4227 9.83684L19.2664 6.95975C19.8096 6.31123 20.412 5.70998 21.0635 5.16384L23.9382 7.32078C24.1351 7.46869 24.4032 7.47813 24.6122 7.34563C25.63 6.69412 26.746 6.23016 27.9288 5.96564C28.1691 5.913 28.3507 5.71595 28.3857 5.47216L28.8934 1.92047C29.7899 1.83945 30.5378 1.83945 31.4343 1.92047L31.9427 5.47216C31.9776 5.71595 32.1592 5.913 32.3995 5.96564C33.5818 6.23016 34.6978 6.69412 35.7156 7.34563C35.9239 7.47813 36.1926 7.46869 36.3896 7.32078L39.2643 5.16384C39.9158 5.70998 40.5182 6.31123 41.0614 6.95975L38.9051 9.83684C38.7571 10.0339 38.7471 10.3032 38.8797 10.5108C39.5335 11.5327 39.9963 12.6476 40.2573 13.8246C40.3099 14.0655 40.507 14.2477 40.7513 14.2826L44.3059 14.7909C44.3462 15.2246 44.3657 15.6436 44.3657 16.0614C44.3657 16.4791 44.3462 16.8981 44.3059 17.3319Z"/>
</mask>
<path fill-rule="evenodd" clip-rule="evenodd" d="M45.4332 14.1992C45.4006 13.9329 45.1935 13.7222 44.929 13.6838L41.3165 13.1678C41.0484 12.1346 40.6383 11.1481 40.0933 10.225L42.2846 7.30002C42.4455 7.0858 42.4425 6.79053 42.2774 6.58047C41.5117 5.60468 40.6259 4.71883 39.6436 3.94842C39.433 3.7833 39.1377 3.77913 38.9228 3.94072L36.0014 6.1325C35.0813 5.58872 34.0942 5.17807 33.0575 4.90765L32.5415 1.29562C32.503 1.0299 32.2906 0.822222 32.0237 0.791474C30.684 0.635833 29.6437 0.635833 28.304 0.791474C28.0371 0.822222 27.8247 1.0299 27.7863 1.29562L27.2703 4.90765C26.2341 5.17807 25.2464 5.58872 24.3263 6.1325L21.4049 3.94072C21.1901 3.77913 20.8948 3.78274 20.6842 3.94842C19.7018 4.71883 18.816 5.60468 18.0503 6.58047C17.8852 6.79053 17.8823 7.0858 18.0432 7.30002L20.2345 10.225C19.6894 11.1481 19.2793 12.1346 19.0113 13.1678L15.3987 13.6838C15.1342 13.7222 14.9271 13.9329 14.8946 14.1992C14.8164 14.8436 14.7785 15.4531 14.7785 16.0614C14.7785 16.6697 14.8164 17.2792 14.8946 17.9236C14.9271 18.1899 15.1342 18.4005 15.3987 18.439L19.0113 18.955C19.2793 19.9882 19.6894 20.9747 20.2345 21.8971L18.0432 24.8228C17.8823 25.037 17.8852 25.3322 18.0503 25.5423C18.8172 26.5193 19.703 27.4051 20.6842 28.175C20.8948 28.3395 21.1901 28.343 21.4049 28.1821L24.3263 25.9902C25.2464 26.5341 26.2341 26.9447 27.2703 27.2151L27.7863 30.8272C27.8247 31.0929 28.0371 31.3006 28.304 31.3313C28.9739 31.4094 29.5822 31.4467 30.1639 31.4467C30.7455 31.4467 31.3539 31.4094 32.0237 31.3313C32.2906 31.3006 32.503 31.0929 32.5415 30.8272L33.0575 27.2151C34.0942 26.9447 35.0813 26.5341 36.0014 25.9902L38.9228 28.1821C39.1377 28.343 39.4323 28.34 39.6436 28.1744C40.6259 27.4039 41.5117 26.5181 42.2774 25.5423C42.4425 25.3322 42.4455 25.037 42.2846 24.8228L40.0933 21.8978C40.6383 20.9747 41.0484 19.9882 41.3165 18.955L44.929 18.439C45.1935 18.4005 45.4006 18.1899 45.4332 17.9236C45.5113 17.2792 45.5492 16.6697 45.5492 16.0614C45.5492 15.4531 45.5113 14.8436 45.4332 14.1992ZM44.3059 17.3319L40.7513 17.8402C40.507 17.8751 40.3099 18.0573 40.2573 18.2982C39.9963 19.4751 39.5335 20.59 38.8797 21.6119C38.7471 21.8196 38.7571 22.0889 38.9051 22.2859L41.0614 25.163C40.5182 25.8115 39.9158 26.4127 39.2643 26.9589L36.3896 24.802C36.1926 24.6541 35.9239 24.6452 35.7156 24.7771C34.6978 25.4287 33.5818 25.8926 32.3995 26.1571C32.1592 26.2098 31.9776 26.4068 31.9427 26.6506L31.4343 30.2023C30.5378 30.2833 29.7899 30.2833 28.8934 30.2023L28.3857 26.6506C28.3507 26.4068 28.1691 26.2098 27.9288 26.1571C26.746 25.8926 25.63 25.4287 24.6122 24.7771C24.4032 24.6452 24.1351 24.6541 23.9382 24.802L21.0635 26.9589C20.4125 26.4139 19.8096 25.8121 19.2664 25.163L21.4227 22.2853C21.5706 22.0877 21.5807 21.8191 21.4481 21.6113C20.7942 20.59 20.3315 19.4758 20.0705 18.2982C20.0178 18.0573 19.8207 17.8751 19.5764 17.8402L16.0218 17.3319C15.9815 16.8981 15.962 16.4791 15.962 16.0614C15.962 15.6436 15.9815 15.2246 16.0218 14.7909L19.5764 14.2826C19.8207 14.2477 20.0178 14.0655 20.0705 13.8246C20.3315 12.6476 20.7942 11.5327 21.4481 10.5108C21.5807 10.3032 21.5706 10.0339 21.4227 9.83684L19.2664 6.95975C19.8096 6.31123 20.412 5.70998 21.0635 5.16384L23.9382 7.32078C24.1351 7.46869 24.4032 7.47813 24.6122 7.34563C25.63 6.69412 26.746 6.23016 27.9288 5.96564C28.1691 5.913 28.3507 5.71595 28.3857 5.47216L28.8934 1.92047C29.7899 1.83945 30.5378 1.83945 31.4343 1.92047L31.9427 5.47216C31.9776 5.71595 32.1592 5.913 32.3995 5.96564C33.5818 6.23016 34.6978 6.69412 35.7156 7.34563C35.9239 7.47813 36.1926 7.46869 36.3896 7.32078L39.2643 5.16384C39.9158 5.70998 40.5182 6.31123 41.0614 6.95975L38.9051 9.83684C38.7571 10.0339 38.7471 10.3032 38.8797 10.5108C39.5335 11.5327 39.9963 12.6476 40.2573 13.8246C40.3099 14.0655 40.507 14.2477 40.7513 14.2826L44.3059 14.7909C44.3462 15.2246 44.3657 15.6436 44.3657 16.0614C44.3657 16.4791 44.3462 16.8981 44.3059 17.3319Z" fill="#232333"/>
<path fill-rule="evenodd" clip-rule="evenodd" d="M45.4332 14.1992C45.4006 13.9329 45.1935 13.7222 44.929 13.6838L41.3165 13.1678C41.0484 12.1346 40.6383 11.1481 40.0933 10.225L42.2846 7.30002C42.4455 7.0858 42.4425 6.79053 42.2774 6.58047C41.5117 5.60468 40.6259 4.71883 39.6436 3.94842C39.433 3.7833 39.1377 3.77913 38.9228 3.94072L36.0014 6.1325C35.0813 5.58872 34.0942 5.17807 33.0575 4.90765L32.5415 1.29562C32.503 1.0299 32.2906 0.822222 32.0237 0.791474C30.684 0.635833 29.6437 0.635833 28.304 0.791474C28.0371 0.822222 27.8247 1.0299 27.7863 1.29562L27.2703 4.90765C26.2341 5.17807 25.2464 5.58872 24.3263 6.1325L21.4049 3.94072C21.1901 3.77913 20.8948 3.78274 20.6842 3.94842C19.7018 4.71883 18.816 5.60468 18.0503 6.58047C17.8852 6.79053 17.8823 7.0858 18.0432 7.30002L20.2345 10.225C19.6894 11.1481 19.2793 12.1346 19.0113 13.1678L15.3987 13.6838C15.1342 13.7222 14.9271 13.9329 14.8946 14.1992C14.8164 14.8436 14.7785 15.4531 14.7785 16.0614C14.7785 16.6697 14.8164 17.2792 14.8946 17.9236C14.9271 18.1899 15.1342 18.4005 15.3987 18.439L19.0113 18.955C19.2793 19.9882 19.6894 20.9747 20.2345 21.8971L18.0432 24.8228C17.8823 25.037 17.8852 25.3322 18.0503 25.5423C18.8172 26.5193 19.703 27.4051 20.6842 28.175C20.8948 28.3395 21.1901 28.343 21.4049 28.1821L24.3263 25.9902C25.2464 26.5341 26.2341 26.9447 27.2703 27.2151L27.7863 30.8272C27.8247 31.0929 28.0371 31.3006 28.304 31.3313C28.9739 31.4094 29.5822 31.4467 30.1639 31.4467C30.7455 31.4467 31.3539 31.4094 32.0237 31.3313C32.2906 31.3006 32.503 31.0929 32.5415 30.8272L33.0575 27.2151C34.0942 26.9447 35.0813 26.5341 36.0014 25.9902L38.9228 28.1821C39.1377 28.343 39.4323 28.34 39.6436 28.1744C40.6259 27.4039 41.5117 26.5181 42.2774 25.5423C42.4425 25.3322 42.4455 25.037 42.2846 24.8228L40.0933 21.8978C40.6383 20.9747 41.0484 19.9882 41.3165 18.955L44.929 18.439C45.1935 18.4005 45.4006 18.1899 45.4332 17.9236C45.5113 17.2792 45.5492 16.6697 45.5492 16.0614C45.5492 15.4531 45.5113 14.8436 45.4332 14.1992ZM44.3059 17.3319L40.7513 17.8402C40.507 17.8751 40.3099 18.0573 40.2573 18.2982C39.9963 19.4751 39.5335 20.59 38.8797 21.6119C38.7471 21.8196 38.7571 22.0889 38.9051 22.2859L41.0614 25.163C40.5182 25.8115 39.9158 26.4127 39.2643 26.9589L36.3896 24.802C36.1926 24.6541 35.9239 24.6452 35.7156 24.7771C34.6978 25.4287 33.5818 25.8926 32.3995 26.1571C32.1592 26.2098 31.9776 26.4068 31.9427 26.6506L31.4343 30.2023C30.5378 30.2833 29.7899 30.2833 28.8934 30.2023L28.3857 26.6506C28.3507 26.4068 28.1691 26.2098 27.9288 26.1571C26.746 25.8926 25.63 25.4287 24.6122 24.7771C24.4032 24.6452 24.1351 24.6541 23.9382 24.802L21.0635 26.9589C20.4125 26.4139 19.8096 25.8121 19.2664 25.163L21.4227 22.2853C21.5706 22.0877 21.5807 21.8191 21.4481 21.6113C20.7942 20.59 20.3315 19.4758 20.0705 18.2982C20.0178 18.0573 19.8207 17.8751 19.5764 17.8402L16.0218 17.3319C15.9815 16.8981 15.962 16.4791 15.962 16.0614C15.962 15.6436 15.9815 15.2246 16.0218 14.7909L19.5764 14.2826C19.8207 14.2477 20.0178 14.0655 20.0705 13.8246C20.3315 12.6476 20.7942 11.5327 21.4481 10.5108C21.5807 10.3032 21.5706 10.0339 21.4227 9.83684L19.2664 6.95975C19.8096 6.31123 20.412 5.70998 21.0635 5.16384L23.9382 7.32078C24.1351 7.46869 24.4032 7.47813 24.6122 7.34563C25.63 6.69412 26.746 6.23016 27.9288 5.96564C28.1691 5.913 28.3507 5.71595 28.3857 5.47216L28.8934 1.92047C29.7899 1.83945 30.5378 1.83945 31.4343 1.92047L31.9427 5.47216C31.9776 5.71595 32.1592 5.913 32.3995 5.96564C33.5818 6.23016 34.6978 6.69412 35.7156 7.34563C35.9239 7.47813 36.1926 7.46869 36.3896 7.32078L39.2643 5.16384C39.9158 5.70998 40.5182 6.31123 41.0614 6.95975L38.9051 9.83684C38.7571 10.0339 38.7471 10.3032 38.8797 10.5108C39.5335 11.5327 39.9963 12.6476 40.2573 13.8246C40.3099 14.0655 40.507 14.2477 40.7513 14.2826L44.3059 14.7909C44.3462 15.2246 44.3657 15.6436 44.3657 16.0614C44.3657 16.4791 44.3462 16.8981 44.3059 17.3319Z" stroke="#232333" stroke-width="0.8" mask="url(#path-4-outside-1)"/>
</svg>
