<svg width="75" height="67" viewBox="0 0 75 67" fill="none" xmlns="http://www.w3.org/2000/svg">
<path opacity="0.4" d="M49.8369 66.25C63.644 66.25 74.8369 55.0571 74.8369 41.25C74.8369 27.4429 63.644 16.25 49.8369 16.25C36.0298 16.25 24.8369 27.4429 24.8369 41.25C24.8369 55.0571 36.0298 66.25 49.8369 66.25Z" fill="#00FFF0"/>
<path d="M39.1631 1.75H9.16309C4.76309 1.75 1.16309 5.35 1.16309 9.75V35.75C1.16309 40.15 4.76309 43.75 9.16309 43.75H39.1631C43.5631 43.75 47.1631 40.15 47.1631 35.75V9.75C47.1631 5.35 43.5631 1.75 39.1631 1.75Z" stroke="#37464F" stroke-width="2" stroke-miterlimit="10" stroke-linecap="round" stroke-linejoin="round"/>
<path d="M39.1631 7.75H9.16309C8.06309 7.75 7.16309 8.65 7.16309 9.75V35.75C7.16309 36.85 8.06309 37.75 9.16309 37.75H39.1631C40.2631 37.75 41.1631 36.85 41.1631 35.75V9.75C41.1631 8.65 40.2631 7.75 39.1631 7.75Z" stroke="#37464F" stroke-width="2" stroke-miterlimit="10" stroke-linecap="round" stroke-linejoin="round"/>
<path d="M39.1631 43.75V47.25C39.1631 47.75 38.6631 48.25 38.1631 48.25H34.1631C33.5631 48.25 33.1631 47.75 33.1631 47.25V43.75H39.1631Z" stroke="#37464F" stroke-width="2" stroke-miterlimit="10" stroke-linecap="round" stroke-linejoin="round"/>
<path d="M15.1631 43.75V47.25C15.1631 47.75 14.7631 48.25 14.1631 48.25H10.1631C9.56309 48.25 9.16309 47.75 9.16309 47.25V43.75H15.1631Z" stroke="#37464F" stroke-width="2" stroke-miterlimit="10" stroke-linecap="round" stroke-linejoin="round"/>
<path d="M24.1631 26.75C26.3722 26.75 28.1631 24.9591 28.1631 22.75C28.1631 20.5409 26.3722 18.75 24.1631 18.75C21.9539 18.75 20.1631 20.5409 20.1631 22.75C20.1631 24.9591 21.9539 26.75 24.1631 26.75Z" stroke="#37464F" stroke-width="2" stroke-miterlimit="10" stroke-linecap="round" stroke-linejoin="round"/>
<path d="M24.1631 18.75V12.75C20.4631 12.75 17.2631 14.75 15.4631 17.75L20.6631 20.75C21.4631 19.55 22.6631 18.75 24.1631 18.75Z" stroke="#37464F" stroke-width="2" stroke-miterlimit="10" stroke-linecap="round" stroke-linejoin="round"/>
<path d="M27.6631 20.75L32.8631 17.75C31.1631 14.75 27.8631 12.75 24.1631 12.75V18.75C25.6631 18.75 26.9631 19.55 27.6631 20.75Z" stroke="#37464F" stroke-width="2" stroke-miterlimit="10" stroke-linecap="round" stroke-linejoin="round"/>
<path d="M20.1631 22.75C20.1631 22.05 20.3631 21.35 20.7631 20.75L15.5631 17.75C14.6631 19.25 14.2631 20.95 14.2631 22.75C14.2631 24.55 14.7631 26.25 15.5631 27.75L20.7631 24.75C20.3631 24.15 20.1631 23.45 20.1631 22.75Z" stroke="#37464F" stroke-width="2" stroke-miterlimit="10" stroke-linecap="round" stroke-linejoin="round"/>
<path d="M20.7631 24.75L15.5631 27.75C17.2631 30.75 20.5631 32.75 24.2631 32.75V26.75C22.6631 26.75 21.4631 25.95 20.7631 24.75Z" stroke="#37464F" stroke-width="2" stroke-miterlimit="10" stroke-linecap="round" stroke-linejoin="round"/>
<path d="M32.8631 17.75L27.6631 20.75C27.9631 21.35 28.2631 22.05 28.2631 22.75C28.2631 23.45 28.0631 24.15 27.6631 24.75L32.8631 27.75C33.7631 26.25 34.1631 24.55 34.1631 22.75C34.1631 20.95 33.6631 19.25 32.8631 17.75Z" stroke="#37464F" stroke-width="2" stroke-miterlimit="10" stroke-linecap="round" stroke-linejoin="round"/>
<path d="M24.1631 26.75V32.75C27.8631 32.75 31.0631 30.75 32.8631 27.75L27.6631 24.75C26.9631 25.95 25.6631 26.75 24.1631 26.75Z" stroke="#37464F" stroke-width="2" stroke-miterlimit="10" stroke-linecap="round" stroke-linejoin="round"/>
</svg>
