<svg width="74" height="66" viewBox="0 0 74 66" fill="none" xmlns="http://www.w3.org/2000/svg">
<path opacity="0.4" d="M48.6738 65.5C62.4809 65.5 73.6738 54.3071 73.6738 40.5C73.6738 26.6929 62.4809 15.5 48.6738 15.5C34.8667 15.5 23.6738 26.6929 23.6738 40.5C23.6738 54.3071 34.8667 65.5 48.6738 65.5Z" fill="#B854F5"/>
<path fill-rule="evenodd" clip-rule="evenodd" d="M64.8959 29.3522L57.5142 21.9707C57.3815 11.7936 49.0615 3.55554 38.8524 3.55554H30.5573C20.3491 3.55554 12.0292 11.7936 11.8944 21.9697L4.51379 29.3522C3.60647 30.2585 3.34835 31.5577 3.83877 32.7419C4.33026 33.927 5.4314 34.6621 6.713 34.6621H9.81952V41.9204C9.81952 44.779 12.1453 47.1048 15.004 47.1048H22.2622V52.2892C22.2622 52.8616 22.7266 53.3261 23.299 53.3261C23.8714 53.3261 24.3359 52.8616 24.3359 52.2892V46.0679C24.3359 45.4955 23.8714 45.031 23.299 45.031H15.004C13.289 45.031 11.8933 43.6353 11.8933 41.9204V33.6253C11.8933 33.0529 11.4288 32.5884 10.8564 32.5884H6.713C6.07017 32.5884 5.8172 32.0989 5.75492 31.9486C5.69277 31.7983 5.52477 31.2726 5.97993 30.8184L13.6715 23.1258C13.8686 22.9298 13.9785 22.6613 13.9753 22.3833L13.9671 22.2195C13.9671 14.5062 19.2666 8.02347 26.4108 6.1747C22.6551 8.80115 20.1884 13.1509 20.1884 18.072C20.1884 22.488 22.1698 26.6107 25.6248 29.3844C26.1235 29.7846 26.4097 30.3725 26.4097 30.9978V35.699V40.8835C26.4097 43.1708 28.2699 45.031 30.5573 45.031H31.785C32.2142 46.2348 33.3548 47.1048 34.7048 47.1048C36.0549 47.1048 37.1954 46.2348 37.6247 45.031H38.8524C41.1397 45.031 42.9999 43.1708 42.9999 40.8835V35.699V30.9978C42.9999 30.3725 43.2861 29.7846 43.7848 29.3844C47.2398 26.6107 49.2212 22.487 49.2212 18.072C49.2212 13.1509 46.7544 8.80115 42.9989 6.1747C50.143 8.02347 55.4425 14.5082 55.4405 22.234C55.4395 22.2537 55.4343 22.3543 55.4332 22.374C55.4281 22.656 55.539 22.9266 55.737 23.1258L63.4296 30.8184C63.8849 31.2726 63.7159 31.7983 63.6547 31.9486C63.5914 32.098 63.3395 32.5884 62.6966 32.5884H58.5532C57.9798 32.5884 57.5163 33.0529 57.5163 33.6253V41.9204C57.5163 43.6353 56.1206 45.031 54.4057 45.031H46.1106C45.5372 45.031 45.0737 45.4955 45.0737 46.0679V52.2892C45.0737 52.8616 45.5372 53.3261 46.1106 53.3261C46.684 53.3261 47.1474 52.8616 47.1474 52.2892V47.1048H54.4057C57.2643 47.1048 59.5901 44.779 59.5901 41.9204V34.6621H62.6966C63.9782 34.6621 65.0794 33.927 65.5708 32.7419C66.0602 31.5577 65.802 30.2585 64.8959 29.3522ZM40.9261 40.8835C40.9261 42.0271 39.996 42.9572 38.8524 42.9572H30.5573C29.4136 42.9572 28.4835 42.0271 28.4835 40.8835V36.7359H40.9261V40.8835ZM47.1474 18.072C47.1474 21.8556 45.448 25.3893 42.4866 27.7669C41.4953 28.5632 40.9261 29.741 40.9261 30.9978V34.6621H28.4835V30.9978C28.4835 29.741 27.9152 28.5632 26.923 27.7669C23.9606 25.3893 22.2622 21.8556 22.2622 18.072C22.2622 11.2109 27.8437 5.62932 34.7048 5.62932C41.5659 5.62932 47.1474 11.2109 47.1474 18.072Z" fill="#232333"/>
<path fill-rule="evenodd" clip-rule="evenodd" d="M30.2536 18.3756C29.8481 17.9702 29.1928 17.9702 28.7874 18.3756C28.382 18.78 28.382 19.4363 28.7874 19.8418L32.9339 23.9894C33.1361 24.1915 33.4016 24.2931 33.667 24.2931C33.9324 24.2931 34.1978 24.1915 34.4001 23.9903L42.6962 15.6943C43.1016 15.2888 43.1016 14.6325 42.6962 14.2281C42.2907 13.8227 41.6354 13.8227 41.23 14.2281L33.668 21.7901L30.2536 18.3756Z" fill="#232333"/>
</svg>
